<svg width="38" height="38" viewBox="0 0 38 38" fill="none" xmlns="http://www.w3.org/2000/svg">
<ellipse cx="18.75" cy="19.3157" rx="18.75" ry="18.5732" fill="black" fill-opacity="0.08"/>
<path fill-rule="evenodd" clip-rule="evenodd" d="M29 13.5176C28.2626 13.8354 27.4743 14.05 26.6436 14.1491C27.4912 13.6538 28.1439 12.8696 28.449 11.9368C27.6565 12.395 26.7792 12.7293 25.8426 12.9068C25.0924 12.1267 24.0244 11.6396 22.8462 11.6396C20.5787 11.6396 18.7436 13.4309 18.7436 15.6391C18.7436 15.9528 18.7775 16.2582 18.8495 16.5512C15.4378 16.3861 12.4117 14.793 10.3901 12.3702C10.0384 12.9604 9.83492 13.6497 9.83492 14.3802C9.83492 15.767 10.5639 16.9929 11.6658 17.711C10.9877 17.6945 10.352 17.5129 9.80102 17.2116C9.80102 17.2281 9.80102 17.2446 9.80102 17.2612C9.80102 19.201 11.2166 20.8148 13.0941 21.1822C12.7508 21.273 12.3863 21.3225 12.0134 21.3225C11.7506 21.3225 11.4921 21.2977 11.242 21.2482C11.7633 22.8373 13.2806 23.9929 15.0776 24.0259C13.6747 25.0991 11.9032 25.7388 9.97902 25.7388C9.64844 25.7388 9.3221 25.7182 9 25.681C10.8097 26.8284 12.9669 27.4888 15.281 27.4888C22.8377 27.4888 26.9657 21.3927 26.9657 16.1055C26.9657 15.9321 26.9614 15.7588 26.953 15.5896C27.754 15.0241 28.449 14.3225 29 13.5176V13.5176Z" fill="#5CDB59"/>
</svg>
