<svg width="24" height="34" viewBox="0 0 24 34" fill="none" xmlns="http://www.w3.org/2000/svg">
<path fill-rule="evenodd" clip-rule="evenodd" d="M21.1633 18.6176C21.2234 18.1327 21.2234 17.5663 21.2234 17C21.2234 16.4337 21.1633 15.9487 21.1633 15.3824L23.6957 12.7136C23.9372 12.4711 23.9972 12.0668 23.8164 11.6623L21.4042 6.0813C21.2835 5.75747 20.9219 5.59641 20.6803 5.75747L17.665 7.37513C17.0619 6.72825 16.3387 6.16187 15.615 5.75747L15.1927 1.4711C15.1326 1.14805 14.8911 0.824219 14.5896 0.824219H9.76504C9.46354 0.824219 9.22208 1.14805 9.16199 1.4711L8.67963 5.75747C7.95582 6.16187 7.29267 6.72818 6.62895 7.37513L3.61362 5.75747C3.31207 5.59641 3.01051 5.75747 2.88981 6.0813L0.477536 11.6624C0.357401 11.9853 0.417383 12.4711 0.598237 12.7136L3.19148 15.3824C3.19148 15.9487 3.13138 16.4337 3.13138 17C3.13138 17.5663 3.19148 18.0513 3.19148 18.6176L0.65907 21.2865C0.417553 21.5289 0.357571 21.9333 0.538312 22.3377L2.95059 27.9187C3.07134 28.2425 3.43294 28.4036 3.6744 28.2425L6.68979 26.6249C7.29284 27.2718 8.01609 27.8381 8.73984 28.2425L9.22219 32.5289C9.2828 32.9333 9.52369 33.1758 9.82525 33.1758H14.6498C14.9514 33.1758 15.1928 32.852 15.2529 32.5289L15.7358 28.2425C16.4591 27.8381 17.1228 27.2718 17.7859 26.6249L20.8013 28.2425C21.1028 28.4036 21.4043 28.2425 21.5251 27.9187L23.9374 22.3377C24.0581 22.0147 23.9975 21.5289 23.8166 21.2864L21.1633 18.6176ZM12.1774 22.6616C9.82519 22.6616 7.95593 20.1547 7.95593 17C7.95593 13.8453 9.82519 11.3385 12.1774 11.3385C14.5295 11.3385 16.3989 13.8453 16.3989 17C16.3989 20.1547 14.5295 22.6616 12.1774 22.6616Z" fill="black" fill-opacity="0.54"/>
</svg>
