<svg width="38" height="38" viewBox="0 0 38 38" fill="none" xmlns="http://www.w3.org/2000/svg">
<ellipse cx="19.25" cy="19.3157" rx="18.75" ry="18.5732" fill="black" fill-opacity="0.08"/>
<path fill-rule="evenodd" clip-rule="evenodd" d="M27.0605 10.6498H12.0379C11.2174 10.6498 10.5 11.235 10.5 12.0385V26.9521C10.5 27.7602 11.2174 28.4801 12.0379 28.4801H27.0558C27.8811 28.4801 28.5 27.7556 28.5 26.9521V12.0385C28.5047 11.235 27.8811 10.6498 27.0605 10.6498ZM16.0796 25.5122H13.5008V17.5701H16.0796V25.5122ZM14.8792 16.3624H14.8605C14.0353 16.3624 13.5008 15.754 13.5008 14.9923C13.5008 14.2166 14.0493 13.6221 14.8933 13.6221C15.7373 13.6221 16.253 14.212 16.2718 14.9923C16.2718 15.754 15.7373 16.3624 14.8792 16.3624ZM25.5039 25.5121H22.9251V21.1695C22.9251 20.1291 22.55 19.4185 21.6169 19.4185C20.9042 19.4185 20.4823 19.8969 20.2947 20.3613C20.2244 20.5285 20.2056 20.7561 20.2056 20.9883V25.5121H17.6268V17.5699H20.2056V18.6753C20.5807 18.1459 21.1668 17.3842 22.5312 17.3842C24.2239 17.3842 25.5039 18.4896 25.5039 20.8722V25.5121Z" fill="#5CDB59"/>
</svg>
