<svg width="38" height="38" viewBox="0 0 38 38" fill="none" xmlns="http://www.w3.org/2000/svg">
<ellipse cx="19.25" cy="19.3157" rx="18.75" ry="18.5732" fill="black" fill-opacity="0.08"/>
<ellipse cx="19.25" cy="19.5645" rx="3.5" ry="3.46701" fill="#5CDB59"/>
<path fill-rule="evenodd" clip-rule="evenodd" d="M16.1274 15.9368C17.034 15.0388 18.2394 14.5389 19.5215 14.5389C20.8036 14.5389 22.009 15.0414 22.9156 15.9395C23.4908 16.5093 23.9017 17.194 24.1255 17.9582H27.7286V13.1609C27.7286 12.0355 26.8505 11.1656 25.7143 11.1656H13.3715C12.2353 11.1656 11.2715 12.0355 11.2715 13.1609V17.9582H14.9174C15.1412 17.194 15.5522 16.5066 16.1274 15.9368ZM26.3572 14.6982C26.3572 14.9983 26.1116 15.2416 25.8086 15.2416H24.1629C23.8599 15.2416 23.6143 14.9983 23.6143 14.6982V13.068C23.6143 12.7679 23.8599 12.5246 24.1629 12.5246H25.8086C26.1116 12.5246 26.3572 12.7678 26.3572 13.068V14.6982Z" fill="#5CDB59"/>
<path fill-rule="evenodd" clip-rule="evenodd" d="M22.9156 22.6616C22.009 23.5596 20.8036 24.0489 19.5215 24.0489C18.2394 24.0489 17.034 23.5623 16.1274 22.6642C15.2225 21.7678 14.7235 20.5483 14.7216 19.3171H11.2715V25.3879C11.2715 26.5134 12.2353 27.4681 13.3715 27.4681H25.7143C26.8505 27.4681 27.7286 26.5134 27.7286 25.3879V19.3171H24.3214C24.3196 20.5483 23.8205 21.7652 22.9156 22.6616V22.6616Z" fill="#5CDB59"/>
</svg>
